<svg xmlns="http://www.w3.org/2000/svg" xmlns:xlink="http://www.w3.org/1999/xlink" width="584.033" height="93.828" viewBox="0 0 584.033 93.828"><defs><linearGradient id="a" y1="1" x2="0.865" y2="0.284" gradientUnits="objectBoundingBox"><stop offset="0" stop-color="#5630af"/><stop offset="1" stop-color="#3067af"/></linearGradient></defs><g transform="translate(-267.967 -896.172)"><g transform="translate(267.967 842.502)"><g transform="translate(0 53.67)"><path d="M92.494,113.71a2,2,0,0,0-2.333.466L85.9,118.442a1.994,1.994,0,0,0-.6,1.465v8.4a10.689,10.689,0,0,1-10.66,10.662H19.191a10.269,10.269,0,0,1-7.531-3.132A10.266,10.266,0,0,1,8.529,128.3V72.862a10.268,10.268,0,0,1,3.132-7.531A10.269,10.269,0,0,1,19.191,62.2H74.636a11.843,11.843,0,0,1,3,.4,1.947,1.947,0,0,0,2.132-.533L83.031,58.8a2.075,2.075,0,0,0,.6-1.932,2.02,2.02,0,0,0-1.2-1.532,18.353,18.353,0,0,0-7.8-1.666H19.191A18.487,18.487,0,0,0,5.63,59.3,18.488,18.488,0,0,0,0,72.862v55.444a18.487,18.487,0,0,0,5.63,13.56A18.484,18.484,0,0,0,19.192,147.5H74.634a19.229,19.229,0,0,0,19.192-19.192V115.645A1.936,1.936,0,0,0,92.494,113.71Z" transform="translate(0 -53.67)" fill="url(#a)"/><path d="M182.721,153.273v19.191h19.193l44.781-44.781L227.5,108.491Zm16.526,12.794h0l-3.732,0v-6.4h-6.4v-3.731l7.73-7.73,10.129,10.13ZM228.5,120.285l-23.324,23.324a1.51,1.51,0,1,1-2.132-2.131l23.324-23.324a1.51,1.51,0,1,1,2.132,2.131Z" transform="translate(-140.073 -95.696)" fill="#3067af"/><path d="M418.179,67.952,408.05,57.823a6.434,6.434,0,0,0-9.062,0l-6.131,6.13,19.192,19.193,6.13-6.131a6.437,6.437,0,0,0,0-9.063Z" transform="translate(-301.162 -55.423)" fill="#3067af"/></g></g><text transform="translate(387 957)" fill="#fff" font-size="36" font-family="PTSerif-BoldItalic, PT Serif" font-weight="700" font-style="italic"><tspan x="0" y="0">microcms-richedit-processer</tspan></text></g></svg>